<svg xmlns="http://www.w3.org/2000/svg" xmlns:xlink="http://www.w3.org/1999/xlink" width="100" height="100" viewBox="0 0 100 100"><rect width="100%" height="100%" fill="#1A1A1A"></rect><g transform="translate(50 50) scale(0.69 0.69) rotate(0) translate(-50 -50)" style="fill:#FFFFFF"><svg fill="#FFFFFF" xmlns="http://www.w3.org/2000/svg" viewBox="0 0 48 48" x="0px" y="0px"><title>morse code-message-communication</title><path d="M13,11H7a1,1,0,0,1-1-1V8A1,1,0,0,1,7,7h6a1,1,0,0,1,1,1v2A1,1,0,0,1,13,11Zm7-4a2,2,0,1,0,2,2A2,2,0,0,0,20,7ZM33,7H27a1,1,0,0,0-1,1v2a1,1,0,0,0,1,1h6a1,1,0,0,0,1-1V8A1,1,0,0,0,33,7ZM13,17H7a1,1,0,0,0-1,1v2a1,1,0,0,0,1,1h6a1,1,0,0,0,1-1V18A1,1,0,0,0,13,17Zm12,0H19a1,1,0,0,0-1,1v2a1,1,0,0,0,1,1h6a1,1,0,0,0,1-1V18A1,1,0,0,0,25,17Zm12,0H31a1,1,0,0,0-1,1v2a1,1,0,0,0,1,1h6a1,1,0,0,0,1-1V18A1,1,0,0,0,37,17ZM13,27H7a1,1,0,0,0-1,1v2a1,1,0,0,0,1,1h6a1,1,0,0,0,1-1V28A1,1,0,0,0,13,27Zm0,10H7a1,1,0,0,0-1,1v2a1,1,0,0,0,1,1h6a1,1,0,0,0,1-1V38A1,1,0,0,0,13,37Zm12,0H19a1,1,0,0,0-1,1v2a1,1,0,0,0,1,1h6a1,1,0,0,0,1-1V38A1,1,0,0,0,25,37ZM40,7a2,2,0,1,0,2,2A2,2,0,0,0,40,7ZM20,27a2,2,0,1,0,2,2A2,2,0,0,0,20,27Zm8,0a2,2,0,1,0,2,2A2,2,0,0,0,28,27Zm4,10a2,2,0,1,0,2,2A2,2,0,0,0,32,37Zm8,0a2,2,0,1,0,2,2A2,2,0,0,0,40,37Z"></path></svg></g></svg>